<svg width="32" height="32" viewBox="0 0 32 32" fill="none" xmlns="http://www.w3.org/2000/svg">
<g clip-path="url(#clip0)">
<path fill-rule="evenodd" clip-rule="evenodd" d="M16.0058 29.9451C23.704 29.9451 29.9447 23.7045 29.9447 16.0062C29.9447 8.308 23.704 2.06734 16.0058 2.06734C8.30751 2.06734 2.06685 8.308 2.06685 16.0062C2.06685 23.7045 8.30751 29.9451 16.0058 29.9451ZM16.0058 32.0125C24.8458 32.0125 32.012 24.8462 32.012 16.0062C32.012 7.16624 24.8458 0 16.0058 0C7.16575 0 -0.000488281 7.16624 -0.000488281 16.0062C-0.000488281 24.8462 7.16575 32.0125 16.0058 32.0125Z" fill="#8470DA"/>
<path d="M29.9447 16.0062C29.9447 23.7045 23.704 29.9451 16.0058 29.9451C8.30751 29.9451 2.06685 23.7045 2.06685 16.0062C2.06685 8.308 8.30751 2.06734 16.0058 2.06734C23.704 2.06734 29.9447 8.308 29.9447 16.0062Z" fill="#8470DA"/>
<path d="M8.96973 16.707L15.9611 26.8057L22.9525 16.707L15.9611 5.05371L8.96973 16.707ZM15.9611 23.2834L13.0192 19.0305L15.9611 20.3425L18.903 19.0305L15.9611 23.2834ZM15.9611 18.1484L11.6039 16.2119L15.9611 8.95085L20.3183 16.2119L15.9611 18.1484Z" fill="white"/>
</g>
<defs>
<clipPath id="clip0">
<rect width="32" height="32" fill="white"/>
</clipPath>
</defs>
</svg>
