<svg width="32" height="32" viewBox="0 0 32 32" fill="none" xmlns="http://www.w3.org/2000/svg">
<g clip-path="url(#clip0)">
<path fill-rule="evenodd" clip-rule="evenodd" d="M15.9995 32C24.8361 32 31.9995 24.8366 31.9995 16C31.9995 7.16344 24.8361 0 15.9995 0C7.16296 0 -0.000488281 7.16344 -0.000488281 16C-0.000488281 24.8366 7.16296 32 15.9995 32Z" fill="#8470DA"/>
<path d="M8.97021 16.707L15.9616 26.8057L22.953 16.707L15.9616 5.05371L8.97021 16.707ZM15.9616 23.2834L13.0197 19.0305L15.9616 20.3425L18.9035 19.0305L15.9616 23.2834ZM15.9616 18.1484L11.6044 16.2119L15.9616 8.95085L20.3188 16.2119L15.9616 18.1484Z" fill="white"/>
</g>
<defs>
<clipPath id="clip0">
<rect width="32" height="32" fill="white"/>
</clipPath>
</defs>
</svg>
