<svg width="28" height="28" viewBox="0 0 28 28" fill="none" xmlns="http://www.w3.org/2000/svg">
<path d="M22.1667 3.5H5.83333C4.54467 3.5 3.5 4.54467 3.5 5.83333V22.1667C3.5 23.4553 4.54467 24.5 5.83333 24.5H22.1667C23.4553 24.5 24.5 23.4553 24.5 22.1667V5.83333C24.5 4.54467 23.4553 3.5 22.1667 3.5Z" stroke="#8470DA" stroke-width="2" stroke-linecap="round" stroke-linejoin="round"/>
<path d="M9.91699 11.667C10.8835 11.667 11.667 10.8835 11.667 9.91699C11.667 8.95049 10.8835 8.16699 9.91699 8.16699C8.95049 8.16699 8.16699 8.95049 8.16699 9.91699C8.16699 10.8835 8.95049 11.667 9.91699 11.667Z" stroke="#8470DA" stroke-width="2" stroke-linecap="round" stroke-linejoin="round"/>
<path d="M24.4997 17.5003L18.6663 11.667L5.83301 24.5003" stroke="#8470DA" stroke-width="2" stroke-linecap="round" stroke-linejoin="round"/>
</svg>
