<svg width="28" height="28" viewBox="0 0 28 28" fill="none" xmlns="http://www.w3.org/2000/svg">
<path d="M10.5 21V5.83333L24.5 3.5V18.6667" stroke="#273443" stroke-width="2" stroke-linecap="round" stroke-linejoin="round"/>
<path d="M7 24.5C8.933 24.5 10.5 22.933 10.5 21C10.5 19.067 8.933 17.5 7 17.5C5.067 17.5 3.5 19.067 3.5 21C3.5 22.933 5.067 24.5 7 24.5Z" stroke="#273443" stroke-width="2" stroke-linecap="round" stroke-linejoin="round"/>
<path d="M21 22.167C22.933 22.167 24.5 20.6 24.5 18.667C24.5 16.734 22.933 15.167 21 15.167C19.067 15.167 17.5 16.734 17.5 18.667C17.5 20.6 19.067 22.167 21 22.167Z" stroke="#273443" stroke-width="2" stroke-linecap="round" stroke-linejoin="round"/>
</svg>
