<svg width="28" height="28" viewBox="0 0 28 28" fill="none" xmlns="http://www.w3.org/2000/svg">
<path d="M13.9997 25.6663C20.443 25.6663 25.6663 20.443 25.6663 13.9997C25.6663 7.55635 20.443 2.33301 13.9997 2.33301C7.55635 2.33301 2.33301 7.55635 2.33301 13.9997C2.33301 20.443 7.55635 25.6663 13.9997 25.6663Z" stroke="#273443" stroke-width="2" stroke-linecap="round" stroke-linejoin="round"/>
<path d="M14 21C17.866 21 21 17.866 21 14C21 10.134 17.866 7 14 7C10.134 7 7 10.134 7 14C7 17.866 10.134 21 14 21Z" stroke="#273443" stroke-width="2" stroke-linecap="round" stroke-linejoin="round"/>
<path d="M14.0003 16.3337C15.289 16.3337 16.3337 15.289 16.3337 14.0003C16.3337 12.7117 15.289 11.667 14.0003 11.667C12.7117 11.667 11.667 12.7117 11.667 14.0003C11.667 15.289 12.7117 16.3337 14.0003 16.3337Z" stroke="#273443" stroke-width="2" stroke-linecap="round" stroke-linejoin="round"/>
</svg>
