<svg width="28" height="28" viewBox="0 0 28 28" fill="none" xmlns="http://www.w3.org/2000/svg">
<path d="M17.1496 7.35002C16.9358 7.5681 16.8161 7.86131 16.8161 8.16668C16.8161 8.47206 16.9358 8.76527 17.1496 8.98335L19.0163 10.85C19.2343 11.0638 19.5275 11.1835 19.8329 11.1835C20.1383 11.1835 20.4315 11.0638 20.6496 10.85L25.0479 6.45168C25.6346 7.74807 25.8122 9.19246 25.5571 10.5924C25.3021 11.9922 24.6264 13.2812 23.6202 14.2873C22.6141 15.2935 21.3252 15.9692 19.9253 16.2242C18.5254 16.4793 17.081 16.3017 15.7846 15.715L7.72292 23.7767C7.25879 24.2408 6.6293 24.5016 5.97292 24.5016C5.31654 24.5016 4.68705 24.2408 4.22292 23.7767C3.75879 23.3126 3.49805 22.6831 3.49805 22.0267C3.49805 21.3703 3.75879 20.7408 4.22292 20.2767L12.2846 12.215C11.6979 10.9186 11.5203 9.47424 11.7754 8.07435C12.0304 6.67445 12.7061 5.38553 13.7123 4.37936C14.7184 3.37319 16.0074 2.69755 17.4072 2.44248C18.8071 2.18742 20.2515 2.36504 21.5479 2.95168L17.1613 7.33835L17.1496 7.35002Z" stroke="#273443" stroke-width="2" stroke-linecap="round" stroke-linejoin="round"/>
</svg>
