<svg width="20" height="20" viewBox="0 0 20 20" fill="none" xmlns="http://www.w3.org/2000/svg">
<path d="M19.1668 2.49959C18.3688 3.06249 17.4853 3.49302 16.5502 3.77459C16.0483 3.19752 15.3813 2.7885 14.6394 2.60286C13.8974 2.41722 13.1164 2.46392 12.4019 2.73664C11.6874 3.00935 11.0739 3.49493 10.6443 4.12769C10.2148 4.76045 9.98991 5.50987 10.0002 6.27459V7.10792C8.53569 7.1459 7.08456 6.8211 5.776 6.16246C4.46745 5.50382 3.34209 4.53179 2.50016 3.33292C2.50016 3.33292 -0.83317 10.8329 6.66683 14.1663C4.9506 15.3312 2.90613 15.9154 0.833496 15.8329C8.3335 19.9996 17.5002 15.8329 17.5002 6.24959C17.4994 6.01747 17.4771 5.78592 17.4335 5.55792C18.284 4.71917 18.8842 3.66018 19.1668 2.49959V2.49959Z" stroke="#3B4857" stroke-width="1.5" stroke-linecap="round" stroke-linejoin="round"/>
</svg>
