<svg width="28" height="28" viewBox="0 0 28 28" fill="none" xmlns="http://www.w3.org/2000/svg">
<path d="M22.75 7.875H5.25C3.80025 7.875 2.625 9.05025 2.625 10.5V21C2.625 22.4497 3.80025 23.625 5.25 23.625H22.75C24.1997 23.625 25.375 22.4497 25.375 21V10.5C25.375 9.05025 24.1997 7.875 22.75 7.875Z" stroke="#8470DA" stroke-width="2" stroke-linejoin="round"/>
<path d="M22.4962 7.8751V6.23447C22.4961 5.83208 22.4072 5.43469 22.2358 5.07063C22.0644 4.70657 21.8147 4.38483 21.5047 4.12836C21.1946 3.87189 20.8318 3.68701 20.442 3.58692C20.0523 3.48683 19.6453 3.47399 19.25 3.54932L4.8475 6.00752C4.22205 6.12671 3.6578 6.46043 3.25207 6.95112C2.84634 7.44181 2.62457 8.0587 2.625 8.69541V11.3751" stroke="#8470DA" stroke-width="2" stroke-linejoin="round"/>
<path d="M20.125 17.5C19.7789 17.5 19.4405 17.3974 19.1528 17.2051C18.865 17.0128 18.6407 16.7395 18.5082 16.4197C18.3758 16.0999 18.3411 15.7481 18.4086 15.4086C18.4762 15.0691 18.6428 14.7573 18.8876 14.5126C19.1323 14.2678 19.4441 14.1012 19.7836 14.0336C20.1231 13.9661 20.4749 14.0008 20.7947 14.1332C21.1145 14.2657 21.3878 14.49 21.5801 14.7778C21.7724 15.0655 21.875 15.4039 21.875 15.75C21.875 16.2141 21.6906 16.6593 21.3624 16.9874C21.0343 17.3156 20.5891 17.5 20.125 17.5Z" fill="#8470DA"/>
</svg>
