<svg width="145" height="36" viewBox="0 0 145 36" fill="none" xmlns="http://www.w3.org/2000/svg">
<path d="M57.608 9.152V12.44H53.144V26H49.04V12.44H44.576V9.152H57.608ZM58.8517 19.28C58.8517 17.904 59.1077 16.696 59.6197 15.656C60.1477 14.616 60.8597 13.816 61.7557 13.256C62.6517 12.696 63.6517 12.416 64.7557 12.416C65.6997 12.416 66.5237 12.608 67.2277 12.992C67.9477 13.376 68.4997 13.88 68.8837 14.504V12.608H72.9877V26H68.8837V24.104C68.4837 24.728 67.9237 25.232 67.2037 25.616C66.4997 26 65.6757 26.192 64.7317 26.192C63.6437 26.192 62.6517 25.912 61.7557 25.352C60.8597 24.776 60.1477 23.968 59.6197 22.928C59.1077 21.872 58.8517 20.656 58.8517 19.28ZM68.8837 19.304C68.8837 18.28 68.5957 17.472 68.0197 16.88C67.4597 16.288 66.7717 15.992 65.9557 15.992C65.1397 15.992 64.4437 16.288 63.8677 16.88C63.3077 17.456 63.0277 18.256 63.0277 19.28C63.0277 20.304 63.3077 21.12 63.8677 21.728C64.4437 22.32 65.1397 22.616 65.9557 22.616C66.7717 22.616 67.4597 22.32 68.0197 21.728C68.5957 21.136 68.8837 20.328 68.8837 19.304ZM84.1168 12.464C85.6848 12.464 86.9328 12.976 87.8608 14C88.8048 15.008 89.2768 16.4 89.2768 18.176V26H85.1968V18.728C85.1968 17.832 84.9648 17.136 84.5008 16.64C84.0368 16.144 83.4128 15.896 82.6288 15.896C81.8448 15.896 81.2208 16.144 80.7568 16.64C80.2928 17.136 80.0608 17.832 80.0608 18.728V26H75.9568V12.608H80.0608V14.384C80.4768 13.792 81.0368 13.328 81.7408 12.992C82.4448 12.64 83.2368 12.464 84.1168 12.464ZM99.5926 22.52V26H97.5046C96.0166 26 94.8566 25.64 94.0246 24.92C93.1926 24.184 92.7766 22.992 92.7766 21.344V16.016H91.1446V12.608H92.7766V9.344H96.8806V12.608H99.5686V16.016H96.8806V21.392C96.8806 21.792 96.9766 22.08 97.1686 22.256C97.3606 22.432 97.6806 22.52 98.1286 22.52H99.5926ZM101.063 19.28C101.063 17.904 101.319 16.696 101.831 15.656C102.359 14.616 103.071 13.816 103.967 13.256C104.863 12.696 105.863 12.416 106.967 12.416C107.911 12.416 108.735 12.608 109.439 12.992C110.159 13.376 110.711 13.88 111.095 14.504V12.608H115.199V26H111.095V24.104C110.695 24.728 110.135 25.232 109.415 25.616C108.711 26 107.887 26.192 106.943 26.192C105.855 26.192 104.863 25.912 103.967 25.352C103.071 24.776 102.359 23.968 101.831 22.928C101.319 21.872 101.063 20.656 101.063 19.28ZM111.095 19.304C111.095 18.28 110.807 17.472 110.231 16.88C109.671 16.288 108.983 15.992 108.167 15.992C107.351 15.992 106.655 16.288 106.079 16.88C105.519 17.456 105.239 18.256 105.239 19.28C105.239 20.304 105.519 21.12 106.079 21.728C106.655 22.32 107.351 22.616 108.167 22.616C108.983 22.616 109.671 22.32 110.231 21.728C110.807 21.136 111.095 20.328 111.095 19.304ZM122.272 8.24V26H118.168V8.24H122.272ZM127.31 11.216C126.59 11.216 125.998 11.008 125.534 10.592C125.086 10.16 124.862 9.632 124.862 9.008C124.862 8.368 125.086 7.84 125.534 7.424C125.998 6.992 126.59 6.776 127.31 6.776C128.014 6.776 128.59 6.992 129.038 7.424C129.502 7.84 129.734 8.368 129.734 9.008C129.734 9.632 129.502 10.16 129.038 10.592C128.59 11.008 128.014 11.216 127.31 11.216ZM129.35 12.608V26H125.246V12.608H129.35ZM137.772 26.192C136.604 26.192 135.564 25.992 134.652 25.592C133.74 25.192 133.02 24.648 132.492 23.96C131.964 23.256 131.668 22.472 131.604 21.608H135.66C135.708 22.072 135.924 22.448 136.308 22.736C136.692 23.024 137.164 23.168 137.724 23.168C138.236 23.168 138.628 23.072 138.9 22.88C139.188 22.672 139.332 22.408 139.332 22.088C139.332 21.704 139.132 21.424 138.732 21.248C138.332 21.056 137.684 20.848 136.788 20.624C135.828 20.4 135.028 20.168 134.388 19.928C133.748 19.672 133.196 19.28 132.732 18.752C132.268 18.208 132.036 17.48 132.036 16.568C132.036 15.8 132.244 15.104 132.66 14.48C133.092 13.84 133.716 13.336 134.532 12.968C135.364 12.6 136.348 12.416 137.484 12.416C139.164 12.416 140.484 12.832 141.444 13.664C142.42 14.496 142.98 15.6 143.124 16.976H139.332C139.268 16.512 139.06 16.144 138.708 15.872C138.372 15.6 137.924 15.464 137.364 15.464C136.884 15.464 136.516 15.56 136.26 15.752C136.004 15.928 135.876 16.176 135.876 16.496C135.876 16.88 136.076 17.168 136.476 17.36C136.892 17.552 137.532 17.744 138.396 17.936C139.388 18.192 140.196 18.448 140.82 18.704C141.444 18.944 141.988 19.344 142.452 19.904C142.932 20.448 143.18 21.184 143.196 22.112C143.196 22.896 142.972 23.6 142.524 24.224C142.092 24.832 141.46 25.312 140.628 25.664C139.812 26.016 138.86 26.192 137.772 26.192Z" fill="#8470DA"/>
<path d="M1.39272 20.4024C0.893214 19.9051 0.893212 19.0988 1.39272 18.6015L17.6726 2.39367C18.1721 1.89638 18.982 1.89638 19.4815 2.39367L33.6771 16.5264C34.1766 17.0237 34.1766 17.83 33.6771 18.3273L17.3972 34.5351C16.8977 35.0324 16.0878 35.0324 15.5883 34.5351L1.39272 20.4024Z" fill="#9B86F8"/>
<path d="M16.4922 16.8194C16.4922 16.4751 16.6322 16.1455 16.8803 15.9057L31.8454 1.44186C32.6565 0.657953 34.0154 1.23013 34.0154 2.35554V17.4711C34.0154 17.8097 33.88 18.1343 33.6392 18.3732L23.2559 28.6728C20.756 31.1526 16.4922 29.3897 16.4922 25.8763V16.8194Z" fill="#41F5E6"/>
<path fill-rule="evenodd" clip-rule="evenodd" d="M17.1558 34.7239C16.9526 34.8469 16.7224 34.9083 16.4922 34.9083V16.8196C16.4922 16.4753 16.6322 16.1457 16.8803 15.9059L25.0865 7.97461L33.6765 16.5267C33.8492 16.6985 33.9621 16.9073 34.0154 17.1275V17.4713C34.0154 17.7539 33.9211 18.0268 33.7498 18.2483C33.7267 18.2755 33.7023 18.3019 33.6765 18.3275L31.2588 20.7346L17.1558 34.7239Z" fill="#8471DA"/>
</svg>
