<svg width="35" height="34" viewBox="0 0 35 34" fill="none" xmlns="http://www.w3.org/2000/svg">
<path d="M1.39272 19.4024C0.893214 18.9051 0.893212 18.0988 1.39272 17.6015L17.6726 1.39367C18.1721 0.896377 18.982 0.896378 19.4815 1.39367L33.6771 15.5264C34.1766 16.0237 34.1766 16.83 33.6771 17.3273L17.3972 33.5351C16.8977 34.0324 16.0878 34.0324 15.5883 33.5351L1.39272 19.4024Z" fill="#9B86F8"/>
<path d="M16.4922 15.8199C16.4922 15.4756 16.6322 15.146 16.8803 14.9062L31.8454 0.442353C32.6565 -0.341558 34.0154 0.230618 34.0154 1.35603V16.4716C34.0154 16.8102 33.88 17.1348 33.6392 17.3737L23.2559 27.6732C20.756 30.1531 16.4922 28.3902 16.4922 24.8768V15.8199Z" fill="#41F5E6"/>
<path fill-rule="evenodd" clip-rule="evenodd" d="M17.1558 33.7239C16.9526 33.8469 16.7224 33.9083 16.4922 33.9083V15.8196C16.4922 15.4753 16.6322 15.1457 16.8803 14.9059L25.0865 6.97461L33.6765 15.5267C33.8492 15.6985 33.9621 15.9073 34.0154 16.1275V16.4713C34.0154 16.7539 33.9211 17.0268 33.7498 17.2483C33.7267 17.2755 33.7023 17.3019 33.6765 17.3275L31.2588 19.7346L17.1558 33.7239Z" fill="#8471DA"/>
</svg>
